<svg xmlns="http://www.w3.org/2000/svg" viewBox="0 0 1154.6 1333.34" shape-rendering="geometricPrecision" text-rendering="geometricPrecision" image-rendering="optimizeQuality" fill-rule="evenodd" clip-rule="evenodd"><path fill="#6A696B" d="M90.13 1174.26c51.73-4.83 196.05-17.18 241.29-86.88 4.59-7.07 42.3-69.62 42.32-69.96l155.87 59.4c3.32 17-87.98 144.59-104.59 158.37-21.19 17.57-41.46 27.26-62.93 35.34-72.15 27.17-134.23 49.06-216.08 62.81l-55.89-159.08zm322.28-637.72l-66.65 241.3c-15.9 78.06 1.3 144.09 74.7 189.68 38.31 23.78 49.05 22.56 92.89 35.25l202.34 46.41c12.06 2.77 252.48 197.38 275.09 216.81l103.83-93.49c15.05-13.55-239.55-238.33-283.97-260.35-210.76-104.48-219.62 14.94-140.31-286.6 40.24 39.26 70.76 83.11 147.15 113.11 92.97 23.8 144.9-8.98 222.26-34.07l114.86-41.35-49.56-140.09-114.86 41.35c-3.24 1.05-11.48 4.09-25.91 9.14-35.82 8.72-67.55 31.43-90.13 20.53-75.17-36.3-119.82-189.73-329.8-206.45-31.61-2.52-90.33-10.44-136.02-11.69-170.3-9.88-228.3 53.91-321.51 149.65-42.91 41.49-43.56 40.98-86.82 82.1l110.17 109.61c43.6-41.45 44.57-41.28 87.82-83.09 39.13-37.46 65.98-76.09 106.2-92.52 26.2-10.7 59.92-6.31 100.09-5.5 2.76.07 5.43.19 8.14.28zM608.93 7.92c84.69-27.47 175.61 18.9 203.09 103.59 27.48 84.69-18.9 175.61-103.59 203.09-84.69 27.48-175.61-18.91-203.09-103.59C477.86 126.32 524.25 35.4 608.93 7.92z" fill-rule="nonzero"/></svg>