<svg xmlns="http://www.w3.org/2000/svg" viewBox="0 0 333334 222791" shape-rendering="geometricPrecision" text-rendering="geometricPrecision" image-rendering="optimizeQuality" fill-rule="evenodd" clip-rule="evenodd" fill="#6A696B"><path d="M0 179683c19297-7435 35535-2566 58109 4212 5899 1769 12293 3694 18076 5202 5166 1344 13084-1571 21369-4625 10367-3817 21154-7791 34092-7458 9763 238 17983 4718 26297 9250 5207 2839 10507 5725 13416 5830 3374 117 8360-2816 13335-5754 8127-4794 16290-9611 27600-9995 12165-407 21572 3782 30893 7930 5311 2362 10600 4718 15033 5055 4177 320 9774-3252 15179-6702 7551-4834 14934-9547 24696-10630 11578-1285 24232 4172 34965 8791l273 122v32981c-2306-691-4683-1591-7151-2603-1711-702-3465-1458-5269-2237-7343-3159-16011-6894-19455-6510-2775 309-7127 3089-11584 5940-1632 1043-3274 2090-4943 3107-8255 5031-17185 9313-28993 8412-9593-739-17407-4212-25261-7709l-683-304c-5861-2608-11752-5136-16736-4973-3076 102-7451 2565-11906 5182l-1022 601c-8826 5207-17657 10408-30055 9967-10123-367-18635-4998-27007-9565l-1050-573c-4664-2538-9130-4888-11295-4943-6552-165-14133 2480-21495 5181l-1288 474c-12846 4736-25121 9256-39660 5463-7813-2036-13724-3816-19158-5445l-176-52c-19680-5906-32503-9708-47886 348-419 274-840 556-1263 850v-34820zM238480 46286l38404-5829c23911-3578 16697-46613-13917-39707l-87099 14376c-9431 1559-25622 2734-32685 9035-4055 3619-5731 8628-4806 14888 1309 8867 8698 19996 13166 28042l10769 19379c7831 14091 12055 15435-2479 23225l-98932 53054 7237 2135 21742 332c2467-809 5055-1763 7674-2729 10367-3816 21154-7790 34092-7458 9763 239 17983 4718 26297 9250l3747 2019 19146 291c1268-710 2566-1472 3857-2234 8127-4794 16290-9611 27600-9995 12165-407 21572 3782 30893 7930 5311 2362 10600 4718 15033 5056 1000 76 2088-76 3228-390l-50423-89630c-4288-7621-11996-17244-10868-23045 378-1943 2985-2751 6150-3217 10728-1577 21433-3147 32173-4777zm41501 19949c21076 0 38157 17080 38157 38157 0 21076-17080 38156-38157 38156-21076 0-38156-17080-38156-38156s17080-38157 38156-38157z" fill-rule="nonzero"/></svg>